# xmcd
#
# Track frame offsets:
#	150
#	24052
#	44340
#	65852
#	85967
#	106960
#	128470
#	149987
#	172217
#
# Disc length: 2570 seconds
#
# Revision: 3
# Processed by: cddbd v1.5.2PL0 Copyright (c) Steve Scherf et al.
# Submitted via: EasyCDDAExtractor 15.3.0.1
#
DISCID=800a0809
DTITLE=Luis Enrique - Luces Del Alma
DYEAR=1990
DGENRE=Latin
TTITLE0=Pequeña
TTITLE1=Hoy O Nunca
TTITLE2=Date Un Chance
TTITLE3=Esta Vez
TTITLE4=Y Pensar
TTITLE5=Usame
TTITLE6=Aventura
TTITLE7=Chica De Algun Lado
TTITLE8=Amiga
EXTD=
EXTT0=
EXTT1=
EXTT2=
EXTT3=
EXTT4=
EXTT5=
EXTT6=
EXTT7=
EXTT8=
PLAYORDER=
